<?xml version="1.0" encoding="utf-8"?>
<!-- Generator: Adobe Illustrator 22.0.1, SVG Export Plug-In . SVG Version: 6.00 Build 0)  -->
<svg version="1.1" id="Layer_1" xmlns="http://www.w3.org/2000/svg" xmlns:xlink="http://www.w3.org/1999/xlink" x="0px" y="0px"
	 viewBox="0 0 512 512" style="enable-background:new 0 0 512 512;" xml:space="preserve">
<style type="text/css">
	.st0{fill:#525670;}
	.st1{fill:none;stroke:#525670;stroke-width:19;stroke-miterlimit:10;}
	.st2{fill:#525670;stroke:#525670;stroke-width:8;stroke-miterlimit:10;}
</style>
<path class="st0" d="M490,300.8V269c0-5.5-4.5-10-10-10s-10,4.5-10,10v19.3c-7.6-3.1-16-4.8-24.7-4.8c-8,0-15.9,1.4-23.3,4.2
	c-0.5-0.2-0.9-0.4-1.4-0.6V180.4c7.1,4.7,15.6,7.5,24.7,7.5s17.6-2.8,24.7-7.5V195c0,5.5,4.5,10,10,10s10-4.5,10-10v-51.8
	c0-21.7-15.6-39.9-36.1-43.9l-88.5-88.5c-14.3-14.3-37.6-14.3-52-0.1c0,0,0,0-0.1,0l-72.6,72.6c-5.8,5.8-9,13.6-9,21.8
	s3.2,16,9,21.8c3.2,3.2,6.9,5.5,10.8,7l-0.5,42.6h20.5v-41.9c4.7-1.4,9.1-4,12.8-7.7l46.5-46.5l69.7,69.7v133.4H157.2l-8.6-16.2
	l14.6-13.6l0.5-43.1c-2-25.8-21-46.8-45.7-51.9c5-7.1,7.9-15.8,7.9-25.2v-13c3.8-1.4,6.6-5.1,6.6-9.4V108
	c0-27.9-22.7-50.6-50.6-50.6S31.3,80.1,31.3,108v3.1c0,4.3,2.7,8,6.6,9.4v13c0,9.3,2.9,18,7.9,25.2C19.8,164.1,0,187.3,0,215.1v81.5
	c0,20.4,15.9,37.2,36,38.5V502c0,5.5,4.5,10,10,10h456c5.5,0,10-4.5,10-10V350.3C512,330.7,503.5,313,490,300.8z M470,143.2
	c0,13.6-11.1,24.7-24.7,24.7s-24.7-11.1-24.7-24.7c0-13.6,11.1-24.7,24.7-24.7S470,129.6,470,143.2z M270.2,112.8
	c-4.2,4.2-11.1,4.2-15.4,0c-2.1-2.1-3.2-4.8-3.2-7.7s1.1-5.6,3.2-7.7L304.2,48c1.8,5.5,4.8,10.5,9,14.7l3.5,3.5L270.2,112.8z
	 M327.4,48.5c-0.3-0.3-0.5-0.5-0.8-0.7c-2.7-3.1-4.1-6.9-4.1-11c0-4.5,1.7-8.7,4.9-11.9c6.4-6.4,16.6-6.5,23.2-0.5
	c0.1,0.2,0.3,0.3,0.4,0.5c6.5,6.5,6.5,17.1,0,23.6S333.9,55,327.4,48.5z M350.4,71.6c5.5-1.8,10.6-4.8,14.8-9
	c4.3-4.3,7.3-9.4,9-14.8l54,54c-10.7,4.5-19.3,13-23.9,23.6L350.4,71.6z M72,79.2l10.5-1.7l9.5,1.7c9.8,3.4,17.4,11.7,19.8,22H92H72
	H52.2C54.6,90.9,62.2,82.6,72,79.2z M106,121.2v12.4c0,13.1-10.5,23.7-23.5,24h-1.1c-13-0.3-23.5-10.9-23.5-24v-12.4
	C57.9,121.2,106,121.2,106,121.2z M46,220c-5.5,0-10,4.5-10,10v85c-9-1.3-16-9.1-16-18.4v-81.5c0-20.7,16.8-37.5,37.5-37.5h24
	c0.2,0,0.4,0,0.5,0c0.2,0,0.4,0,0.5,0h24c19.2,0,35,14.5,37.2,33.1l-1.3,72.9H128V230c0-5.5-4.5-10-10-10s-10,4.5-10,10v53.5h-9
	c-20.2,0-37.3,13.4-43,31.7V230C56,224.5,51.5,220,46,220z M72,492H56V341.8c2.8,9.2,8.5,17.1,16,22.7V492z M74,328.5
	c0-13.8,11.2-25,25-25h304c13.8,0,25,11.2,25,25s-11.2,25-25,25H99C85.2,353.5,74,342.3,74,328.5z M108,492H92V373
	c2.3,0.4,4.6,0.5,7,0.5h9V492z M378.5,401.5h-117c-5.5,0-10,4.5-10,10s4.5,10,10,10h117V492H128V373.5h250.5V401.5z M492,492h-93.5
	V373.5h4.5c5.6,0,10.9-1,15.8-2.9c6.4,7.9,16,12.6,26.4,12.6c18.7,0,34-15.2,34-34c0-18.5-14.9-33.6-33.3-34
	c-1.3-4.1-3.1-8-5.4-11.5c1.6-0.2,3.1-0.2,4.7-0.2c25.8,0,46.7,21,46.7,46.7L492,492L492,492z M435.7,359.4
	c6.1-6.5,10.4-14.8,11.8-24c6.7,1.1,11.8,6.8,11.8,13.8c0,7.7-6.3,14-14,14C441.6,363.3,438.2,361.9,435.7,359.4z"/>
<path class="st0" d="M438.2,136.1c-1.9,1.9-2.9,4.4-2.9,7.1c0,2.6,1.1,5.2,2.9,7.1c1.9,1.9,4.4,2.9,7.1,2.9c2.6,0,5.2-1.1,7.1-2.9
	s2.9-4.4,2.9-7.1c0-2.6-1.1-5.2-2.9-7.1c-1.9-1.9-4.4-2.9-7.1-2.9C442.6,133.2,440.1,134.2,438.2,136.1z"/>
<path class="st0" d="M349.2,36.7c0-2.6-1.1-5.2-2.9-7.1c-1.9-1.9-4.4-2.9-7.1-2.9c-2.6,0-5.2,1.1-7.1,2.9c-1.9,1.9-2.9,4.4-2.9,7.1
	c0,2.6,1.1,5.2,2.9,7.1c1.9,1.9,4.4,2.9,7.1,2.9c2.6,0,5.2-1.1,7.1-2.9C348.1,41.9,349.2,39.3,349.2,36.7z"/>
<path class="st0" d="M302.9,321.5c-1.9,1.9-2.9,4.4-2.9,7.1s1.1,5.2,2.9,7.1c1.9,1.9,4.4,2.9,7.1,2.9s5.2-1.1,7.1-2.9
	c1.9-1.9,2.9-4.4,2.9-7.1s-1.1-5.2-2.9-7.1c-1.9-1.9-4.4-2.9-7.1-2.9S304.8,319.6,302.9,321.5z"/>
<path class="st0" d="M366.9,321.5c-1.9,1.9-2.9,4.4-2.9,7.1c0,2.6,1.1,5.2,2.9,7.1s4.4,2.9,7.1,2.9c2.6,0,5.2-1.1,7.1-2.9
	s2.9-4.4,2.9-7.1c0-2.6-1.1-5.2-2.9-7.1c-1.9-1.9-4.4-2.9-7.1-2.9S368.8,319.6,366.9,321.5z"/>
<path class="st0" d="M125.1,335.6c1.9-1.9,2.9-4.4,2.9-7.1c0-2.6-1.1-5.2-2.9-7.1c-1.9-1.9-4.4-2.9-7.1-2.9s-5.2,1.1-7.1,2.9
	s-2.9,4.4-2.9,7.1c0,2.6,1.1,5.2,2.9,7.1c1.9,1.9,4.4,2.9,7.1,2.9S123.2,337.5,125.1,335.6z"/>
<path class="st0" d="M238.9,321.5c-1.9,1.9-2.9,4.4-2.9,7.1c0,2.6,1.1,5.2,2.9,7.1c1.9,1.9,4.4,2.9,7.1,2.9s5.2-1.1,7.1-2.9
	c1.9-1.9,2.9-4.4,2.9-7.1s-1.1-5.2-2.9-7.1c-1.9-1.9-4.4-2.9-7.1-2.9S240.8,319.6,238.9,321.5z"/>
<path class="st0" d="M174.9,321.5c-1.9,1.9-2.9,4.4-2.9,7.1s1.1,5.2,2.9,7.1c1.9,1.9,4.4,2.9,7.1,2.9s5.2-1.1,7.1-2.9
	c1.9-1.9,2.9-4.4,2.9-7.1s-1.1-5.2-2.9-7.1c-1.9-1.9-4.4-2.9-7.1-2.9S176.8,319.6,174.9,321.5z"/>
<g>
	<path class="st0" d="M393.2,216c-3-3.2-8.2-3.5-11.7-0.7c-13.4,11-30.6,17-48.4,17h-190c-17.8,0-35-6-48.4-17
		c-3.4-2.8-8.7-2.5-11.7,0.7s-2.7,8,0.7,10.9c15.5,12.7,35.2,20,55.8,20.7c-0.6,1.1-1,2.3-1,3.7c0,1.8,0.7,3.4,1.8,4.7
		c-1.1,2.5-1.8,5.2-1.8,8c0,11.3,9.9,20.5,22,20.5s22-9.2,22-20.5c0-2.9-0.6-5.6-1.8-8c1.1-1.3,1.8-3,1.8-4.7c0-1.3-0.3-2.5-1-3.6
		H302c-0.6,1.1-1,2.3-1,3.6c0,1.8,0.7,3.4,1.8,4.7c-1.1,2.5-1.8,5.2-1.8,8c0,11.3,9.9,20.5,22,20.5s22-9.2,22-20.5
		c0-2.9-0.6-5.6-1.8-8c1.1-1.3,1.8-3,1.8-4.7c0-1.5-0.5-3-1.3-4.2c18-2,35-9,48.7-20.2C395.9,224,396.3,219.2,393.2,216z
		 M160.7,269.2c-3,0-5.5-2.3-5.5-5.1c0-2.8,2.5-5.1,5.5-5.1s5.5,2.3,5.5,5.1C166.2,266.9,163.7,269.2,160.7,269.2z M323.1,269.2
		c-3,0-5.5-2.3-5.5-5.1c0-2.8,2.5-5.1,5.5-5.1s5.5,2.3,5.5,5.1C328.6,266.9,326.1,269.2,323.1,269.2z"/>
</g>
<path class="st1" d="M488.2,266.2h-28.7c-6.6,0-12-5.4-12-12v-42.7c0-6.6,5.4-12,12-12h28.7c6.6,0,12,5.4,12,12v42.7
	C500.2,260.8,494.8,266.2,488.2,266.2z"/>
<path class="st0" d="M466.3,215c-6.4,0-6.4,10,0,10C472.8,225,472.8,215,466.3,215z"/>
<path class="st0" d="M482.2,215c-6.4,0-6.4,10,0,10S488.6,215,482.2,215z"/>
<path class="st0" d="M466.3,231c-6.4,0-6.4,10,0,10C472.8,241,472.8,231,466.3,231z"/>
<path class="st0" d="M482.2,231c-6.4,0-6.4,10,0,10S488.6,231,482.2,231z"/>
<path class="st2" d="M156.8,106h-35.4c-6.4,0-6.4,10,0,10h35.4C163.3,116,163.3,106,156.8,106z"/>
</svg>
