<?xml version="1.0" encoding="utf-8"?>
<!-- Generator: Adobe Illustrator 22.0.1, SVG Export Plug-In . SVG Version: 6.00 Build 0)  -->
<svg version="1.1" id="Layer_1" xmlns="http://www.w3.org/2000/svg" xmlns:xlink="http://www.w3.org/1999/xlink" x="0px" y="0px"
	 viewBox="0 0 512 512" style="enable-background:new 0 0 512 512;" xml:space="preserve">
<style type="text/css">
	.st0{fill:none;stroke:#000000;stroke-width:19;stroke-miterlimit:10;}
	.st1{stroke:#000000;stroke-width:8;stroke-miterlimit:10;}
	.st2{fill:none;stroke:#000000;stroke-width:21;stroke-miterlimit:10;}
</style>
<g id="Layer_1_1_">
	<path d="M36,502c0,5.5,4.5,10,10,10h456c5.5,0,10-4.5,10-10V350.3c0-19.6-8.5-37.3-22-49.5V269c0-5.5-4.5-10-10-10s-10,4.5-10,10
		v19.3c-7.6-3.1-16-4.8-24.7-4.8c-8,0-15.9,1.4-23.3,4.2c-0.5-0.2-0.9-0.4-1.4-0.6V180.4c7.1,4.7,15.6,7.5,24.7,7.5
		s17.6-2.8,24.7-7.5V195c0,5.5,4.5,10,10,10s10-4.5,10-10v-51.8c0-21.7-15.6-39.9-36.1-43.9l-88.5-88.5c-14.3-14.3-37.6-14.3-52-0.1
		c0,0,0,0-0.1,0l-72.6,72.6c-5.8,5.8-9,13.6-9,21.8s3.2,16,9,21.8c3.2,3.2,6.9,5.5,10.8,7l-0.5,42.6h20.5v-41.9
		c4.7-1.4,9.1-4,12.8-7.7l46.5-46.5l69.7,69.7v133.4l-238.9,1l1.6-30.8l0.5-43.1c-2-25.8-21-46.8-45.7-51.9c5-7.1,7.9-15.8,7.9-25.2
		v-13c3.8-1.4,6.6-5.1,6.6-9.4V108c0-27.9-22.7-50.6-50.6-50.6S31.3,80.1,31.3,108v3.1c0,4.3,2.7,8,6.6,9.4v13
		c0,9.3,2.9,18,7.9,25.2C19.8,164.1,0,187.3,0,215.1v61l2.6,10.8c2.7,4,5.2,4.9,9.1,5c2.8,0.1,5.5,0.1,8.3,0.2v-77
		c0-20.7,16.8-37.5,37.5-37.5h49c19.2,0,35,14.5,37.2,33.1l-1.3,72.9H128V230c0-5.5-4.5-10-10-10s-10,4.5-10,10v53.5h-9
		c-20.2,0-37.3,13.4-43,31.7l-3.7-46.8c0-5.5-14.1-0.2-14.1,5.2 M106,133.6c0,13.1-10.5,23.7-23.5,24h-1.1
		c-13-0.3-23.5-10.9-23.5-24v-12.4H106V133.6z M52.2,101.2c2.4-10.3,10-18.6,19.8-22l10.5-1.7l9.5,1.7c9.8,3.4,17.4,11.7,19.8,22
		H52.2z M470,143.2c0,13.6-11.1,24.7-24.7,24.7s-24.7-11.1-24.7-24.7c0-13.6,11.1-24.7,24.7-24.7S470,129.6,470,143.2z M270.2,112.8
		c-4.2,4.2-11.1,4.2-15.4,0c-2.1-2.1-3.2-4.8-3.2-7.7c0-2.9,1.1-5.6,3.2-7.7L304.2,48c1.8,5.5,4.8,10.5,9,14.7l3.5,3.5L270.2,112.8z
		 M327.4,48.5c-0.3-0.3-0.5-0.5-0.8-0.7c-2.7-3.1-4.1-6.9-4.1-11c0-4.5,1.7-8.7,4.9-11.9c6.4-6.4,16.6-6.5,23.2-0.5
		c0.1,0.2,0.3,0.3,0.4,0.5c6.5,6.5,6.5,17.1,0,23.6S333.9,55,327.4,48.5z M350.4,71.6c5.5-1.8,10.6-4.8,14.8-9
		c4.3-4.3,7.3-9.4,9-14.8l54,54c-10.7,4.5-19.3,13-23.9,23.6L350.4,71.6z M72,492H56V341.8c2.8,9.2,8.5,17.1,16,22.7V492z M74,328.5
		c0-13.8,11.2-25,25-25h304c13.8,0,25,11.2,25,25s-11.2,25-25,25H99C85.2,353.5,74,342.3,74,328.5z M108,492H92V373
		c2.3,0.4,4.6,0.5,7,0.5h9V492z M378.5,401.5h-117c-5.5,0-10,4.5-10,10s4.5,10,10,10h117V492H128V373.5h250.5V401.5z M491.9,492
		h-93.4V373.5h4.5c5.6,0,10.9-1,15.8-2.9c6.4,7.9,16,12.6,26.4,12.6c18.7,0,34-15.2,34-34c0-18.5-14.9-33.6-33.3-34
		c-1.3-4.1-3.1-8-5.4-11.5c1.6-0.2,3.1-0.2,4.7-0.2c25.8,0,46.7,21,46.7,46.7L491.9,492L491.9,492z M435.7,359.4
		c6.1-6.5,10.4-14.8,11.8-24c6.7,1.1,11.8,6.8,11.8,13.8c0,7.7-6.3,14-14,14C441.6,363.3,438.2,361.9,435.7,359.4z"/>
	<path d="M438.2,136.1c-1.9,1.9-2.9,4.4-2.9,7.1c0,2.6,1.1,5.2,2.9,7.1c1.9,1.9,4.4,2.9,7.1,2.9c2.6,0,5.2-1.1,7.1-2.9
		s2.9-4.4,2.9-7.1c0-2.6-1.1-5.2-2.9-7.1c-1.9-1.9-4.4-2.9-7.1-2.9C442.6,133.2,440.1,134.2,438.2,136.1z"/>
	<path d="M349.2,36.7c0-2.6-1.1-5.2-2.9-7.1c-1.9-1.9-4.4-2.9-7.1-2.9c-2.6,0-5.2,1.1-7.1,2.9c-1.9,1.9-2.9,4.4-2.9,7.1
		c0,2.6,1.1,5.2,2.9,7.1c1.9,1.9,4.4,2.9,7.1,2.9c2.6,0,5.2-1.1,7.1-2.9C348.1,41.9,349.2,39.3,349.2,36.7z"/>
	<path d="M302.9,321.5c-1.9,1.9-2.9,4.4-2.9,7.1s1.1,5.2,2.9,7.1c1.9,1.9,4.4,2.9,7.1,2.9s5.2-1.1,7.1-2.9c1.9-1.9,2.9-4.4,2.9-7.1
		s-1.1-5.2-2.9-7.1c-1.9-1.9-4.4-2.9-7.1-2.9S304.8,319.6,302.9,321.5z"/>
	<path d="M366.9,321.5c-1.9,1.9-2.9,4.4-2.9,7.1c0,2.6,1.1,5.2,2.9,7.1s4.4,2.9,7.1,2.9c2.6,0,5.2-1.1,7.1-2.9s2.9-4.4,2.9-7.1
		c0-2.6-1.1-5.2-2.9-7.1c-1.9-1.9-4.4-2.9-7.1-2.9S368.8,319.6,366.9,321.5z"/>
	<path d="M125.1,335.6c1.9-1.9,2.9-4.4,2.9-7.1c0-2.6-1.1-5.2-2.9-7.1c-1.9-1.9-4.4-2.9-7.1-2.9s-5.2,1.1-7.1,2.9s-2.9,4.4-2.9,7.1
		c0,2.6,1.1,5.2,2.9,7.1c1.9,1.9,4.4,2.9,7.1,2.9S123.2,337.5,125.1,335.6z"/>
	<path d="M238.9,321.5c-1.9,1.9-2.9,4.4-2.9,7.1c0,2.6,1.1,5.2,2.9,7.1c1.9,1.9,4.4,2.9,7.1,2.9s5.2-1.1,7.1-2.9
		c1.9-1.9,2.9-4.4,2.9-7.1s-1.1-5.2-2.9-7.1c-1.9-1.9-4.4-2.9-7.1-2.9S240.8,319.6,238.9,321.5z"/>
	<path d="M174.9,321.5c-1.9,1.9-2.9,4.4-2.9,7.1s1.1,5.2,2.9,7.1c1.9,1.9,4.4,2.9,7.1,2.9s5.2-1.1,7.1-2.9c1.9-1.9,2.9-4.4,2.9-7.1
		s-1.1-5.2-2.9-7.1c-1.9-1.9-4.4-2.9-7.1-2.9S176.8,319.6,174.9,321.5z"/>
	<g>
		<path d="M438.2,216c-3-3.2-8.2-3.5-11.7-0.7c-13.4,11-30.6,17-48.4,17h-190c-17.8,0-35-6-48.4-17c-3.4-2.8-8.7-2.5-11.7,0.7
			s-2.7,8,0.7,10.9c15.5,12.7,35.2,20,55.8,20.7c-0.6,1.1-1,2.3-1,3.7c0,1.8,0.7,3.4,1.8,4.7c-1.1,2.5-1.8,5.2-1.8,8
			c0,11.3,9.9,20.5,22,20.5s22-9.2,22-20.5c0-2.9-0.6-5.6-1.8-8c1.1-1.3,1.8-3,1.8-4.7c0-1.3-0.3-2.5-1-3.6H347
			c-0.6,1.1-1,2.3-1,3.6c0,1.8,0.7,3.4,1.8,4.7c-1.1,2.5-1.8,5.2-1.8,8c0,11.3,9.9,20.5,22,20.5s22-9.2,22-20.5c0-2.9-0.6-5.6-1.8-8
			c1.1-1.3,1.8-3,1.8-4.7c0-1.5-0.5-3-1.3-4.2c18-2,35-9,48.7-20.2C440.9,224,441.3,219.2,438.2,216z M205.7,269.2
			c-3,0-5.5-2.3-5.5-5.1c0-2.8,2.5-5.1,5.5-5.1s5.5,2.3,5.5,5.1C211.2,266.9,208.7,269.2,205.7,269.2z M368.1,269.2
			c-3,0-5.5-2.3-5.5-5.1c0-2.8,2.5-5.1,5.5-5.1s5.5,2.3,5.5,5.1C373.6,266.9,371.1,269.2,368.1,269.2z"/>
	</g>
	<path class="st0" d="M488.2,266.2h-28.7c-6.6,0-12-5.4-12-12v-42.7c0-6.6,5.4-12,12-12h28.7c6.6,0,12,5.4,12,12v42.7
		C500.2,260.8,494.8,266.2,488.2,266.2z"/>
	<path d="M466.3,215c-6.4,0-6.4,10,0,10C472.8,225,472.8,215,466.3,215z"/>
	<path d="M482.2,215c-6.4,0-6.4,10,0,10S488.6,215,482.2,215z"/>
	<path d="M466.3,231c-6.4,0-6.4,10,0,10C472.8,241,472.8,231,466.3,231z"/>
	<path d="M482.2,231c-6.4,0-6.4,10,0,10S488.6,231,482.2,231z"/>
	<path class="st1" d="M156.8,106h-35.4c-6.4,0-6.4,10,0,10h35.4C163.3,116,163.3,106,156.8,106z"/>
</g>
<g id="Layer_2_1_">
	<line class="st2" x1="16.2" y1="281.9" x2="88.5" y2="255"/>
	<line class="st2" x1="72" y1="273.4" x2="72" y2="208.7"/>
	<line class="st2" x1="88.4" y1="273.7" x2="88.4" y2="209"/>
</g>
<g transform="translate(0.000000,1114.000000) scale(0.100000,-0.100000)">
	<path d="M4399.3,6939.2c-94.6-6-184.4-39.8-259.1-97.5c-23.3-17.9-51.2-44.1-55.8-52.1c-3.8-6.7-5.8-13.4-6.1-21.2
		c-1-20.9,12.8-39.5,33.3-44.7c5.8-1.5,16.2-1.5,21.7,0c5,1.4,12.9,5.3,16.3,8.2c1.6,1.3,6.7,6.2,11.5,10.8
		c59.3,57.6,133.8,94.1,214.8,105.4c31.2,4.4,66.5,4.8,97.8,1.2c58.8-6.7,114.9-26.8,164.5-58.9c20.4-13.2,36.3-25.6,55.2-43.1
		c9.2-8.5,12.1-10.8,17.4-13.4c6.2-3,11-4,19.2-3.9c8.4,0.1,11.6,0.9,18.7,4.4c23.5,11.5,31.7,40.6,17.8,63.6
		c-2.2,3.6-15.3,16.6-26.1,25.9c-49.5,42.9-103.8,73.4-166.1,93.6C4519.5,6935.4,4458.4,6943,4399.3,6939.2z"/>
	<path d="M4409,6769.5c-9.6-0.7-19-1.7-25-2.5c-68.2-9.2-131-38.1-183.2-84.2c-9.2-8.2-20.3-19.6-22.9-23.5
		c-7.8-12.2-9.3-28.4-3.6-41.7c9.1-21.2,33.4-31.9,55.3-24.1c7.4,2.6,11.1,5.2,19.9,13.8c26.5,25.9,56.8,45.3,90.7,58.1
		c55.1,20.7,118,21.5,173.5,2.2c34.6-12.1,64.1-30,92.5-56.2c7.5-7,11.2-9.5,17.2-12c6.1-2.5,12.1-3.5,19-3
		c6.6,0.4,10.7,1.4,16.1,4.1c8.2,4,15.2,10.4,19.4,17.7c6.8,11.8,7.6,27.3,2.3,39.9c-2.6,6.2-6.1,10.6-14.2,18.3
		c-35.8,34.1-80.5,60.8-127.8,76.4c-26.8,8.8-52,13.9-81.9,16.4C4449,6769.8,4415.8,6770,4409,6769.5z"/>
	<path d="M4414.8,6592.7c-17.5-1.6-35.9-6.2-52.5-13.1c-12.6-5.2-30-15.8-41-24.7c-15-12.3-21.5-20.1-24.9-29.7
		c-2.8-8.2-3.2-18.6-1-26.5c2.3-8.3,8.4-17.3,15.3-22.9c4-3.2,11.7-7,16.8-8.3c5.1-1.3,17.5-1.1,22.3,0.3
		c8.4,2.5,13.2,5.6,21.6,13.4c12.1,11.3,25.3,18.4,41.2,22.1c4.6,1.1,7.2,1.3,16.6,1.4c9.5,0.1,12,0,16.6-1
		c16-3.3,29.5-10.1,41.7-21.1c8.7-7.8,14.3-11,22.7-13c5.9-1.4,14.9-1.3,20.8,0.3c9,2.4,18.1,8.3,23.9,15.6c3.1,3.9,7,11.7,8.2,16.6
		c2,8,1.3,18.3-1.7,26.5c-2.9,7.5-6.6,12.6-15.3,20.4c-22.3,20.2-50.2,34.5-79.5,40.6C4449.5,6593.1,4432,6594.2,4414.8,6592.7z"/>
	<path d="M4419.6,6421.6c-12.7-3.3-23.1-11.8-28.5-23.4c-3.5-7.5-4.2-10.7-4-19.9c0.1-9.3,0.8-12.4,4.6-19.9
		c3.2-6.3,9.7-13.4,16-17.1c14.3-8.7,33-8.4,47,0.6c6.1,3.9,12.5,11.1,15.5,17.5c3.8,7.9,4.4,10.9,4.3,20
		c-0.1,9.3-0.9,12.5-4.6,19.8c-4.6,9-10.9,15.1-19.8,19.3C4440.6,6423,4429.4,6424.1,4419.6,6421.6z"/>
</g>
<g transform="translate(0.000000,1114.000000) scale(0.100000,-0.100000)">
	<path d="M930.8,9243.9c-32.7-2.1-63.7-13.8-89.6-33.7c-8-6.2-17.7-15.2-19.3-18c-1.3-2.3-2-4.6-2.1-7.3
		c-0.4-7.2,4.4-13.7,11.5-15.5c2-0.5,5.6-0.5,7.5,0c1.7,0.5,4.4,1.8,5.6,2.9c0.5,0.5,2.3,2.1,4,3.8c20.5,19.9,46.2,32.5,74.3,36.4
		c10.8,1.5,23,1.7,33.8,0.4c20.3-2.3,39.7-9.3,56.9-20.4c7.1-4.6,12.6-8.9,19.1-14.9c3.2-2.9,4.2-3.7,6-4.6c2.2-1,3.8-1.4,6.6-1.3
		c2.9,0,4,0.3,6.5,1.5c8.1,4,11,14,6.2,22c-0.7,1.2-5.3,5.7-9,9c-17.1,14.8-35.9,25.4-57.4,32.4
		C972.4,9242.6,951.2,9245.2,930.8,9243.9z"/>
	<path d="M934.2,9185.2c-3.3-0.2-6.6-0.6-8.6-0.9c-23.6-3.2-45.3-13.2-63.3-29.1c-3.2-2.8-7-6.8-7.9-8.1c-2.7-4.2-3.2-9.8-1.2-14.4
		c3.1-7.3,11.6-11,19.1-8.3c2.5,0.9,3.8,1.8,6.9,4.8c9.1,9,19.6,15.7,31.4,20.1c19,7.2,40.8,7.4,60,0.7c12-4.2,22.1-10.4,32-19.4
		c2.6-2.4,3.9-3.3,5.9-4.2c2.1-0.9,4.2-1.2,6.6-1c2.3,0.1,3.7,0.5,5.6,1.4c2.8,1.4,5.3,3.6,6.7,6.1c2.3,4.1,2.6,9.4,0.8,13.8
		c-0.9,2.1-2.1,3.7-4.9,6.3c-12.4,11.8-27.8,21-44.2,26.4c-9.3,3.1-18,4.8-28.3,5.7C948,9185.3,936.5,9185.4,934.2,9185.2z"/>
	<path d="M936.2,9124.1c-6.1-0.5-12.4-2.1-18.2-4.5c-4.4-1.8-10.4-5.4-14.2-8.6c-5.2-4.3-7.4-6.9-8.6-10.3c-1-2.8-1.1-6.4-0.4-9.2
		c0.8-2.9,2.9-6,5.3-7.9c1.4-1.1,4-2.4,5.8-2.9c1.8-0.4,6-0.4,7.7,0.1c2.9,0.9,4.6,1.9,7.5,4.6c4.2,3.9,8.7,6.4,14.3,7.6
		c1.6,0.4,2.5,0.4,5.7,0.5c3.3,0,4.2,0,5.8-0.3c5.5-1.1,10.2-3.5,14.4-7.3c3-2.7,4.9-3.8,7.9-4.5c2-0.5,5.1-0.4,7.2,0.1
		c3.1,0.8,6.3,2.9,8.3,5.4c1.1,1.3,2.4,4,2.8,5.7c0.7,2.8,0.5,6.3-0.6,9.2c-1,2.6-2.3,4.3-5.3,7.1c-7.7,7-17.4,11.9-27.5,14
		C948.2,9124.2,942.1,9124.6,936.2,9124.1z"/>
	<path d="M937.8,9065c-4.4-1.1-8-4.1-9.9-8.1c-1.2-2.6-1.4-3.7-1.4-6.9s0.3-4.3,1.6-6.9c1.1-2.2,3.4-4.6,5.5-5.9
		c4.9-3,11.4-2.9,16.3,0.2c2.1,1.4,4.3,3.8,5.4,6c1.3,2.7,1.5,3.8,1.5,6.9c0,3.2-0.3,4.3-1.6,6.8c-1.6,3.1-3.8,5.2-6.8,6.7
		C945.1,9065.4,941.2,9065.8,937.8,9065z"/>
</g>
</svg>
